<?xml version="1.0" encoding="UTF-8"?>
<svg width="635px" height="146px" viewBox="0 0 635 146" version="1.1" xmlns="http://www.w3.org/2000/svg" xmlns:xlink="http://www.w3.org/1999/xlink">
    <title>Icon_logo_header</title>
    <defs>
        <polygon id="path-1" points="0 0 66.8421053 0 66.8421053 70 0 70"></polygon>
    </defs>
    <g id="Icon_logo_header" stroke="none" stroke-width="1" fill="none" fill-rule="evenodd">
        <g id="Main_logo" transform="translate(0.000000, 38.000000)">
            <g id="Group-7" transform="translate(0.000000, 9.000000)" fill="#FFFFFF">
                <path d="M37.4923191,39.8878511 L43.3731927,39.8878511 L43.3731927,2.8 L37.4923191,2.8 L37.4923191,39.8878511 Z M18.6614873,25.7614067 C19.7923168,25.2593058 20.7538019,24.5989495 21.5459424,23.784654 C22.3366834,22.9717972 22.9580799,22.0121946 23.4101318,20.9072848 C23.8635833,19.8038137 24.090309,18.6125828 24.090309,17.3335921 C24.090309,16.0546015 23.8635833,14.8619319 23.4101318,13.7584608 C22.9580799,12.653551 22.3366834,11.6939484 21.5459424,10.8810916 C20.7538019,10.0667961 19.8007141,9.4179493 18.6908776,8.93311258 C17.5782421,8.44827586 16.3438464,8.20657684 14.9862911,8.20657684 C13.6287358,8.20657684 12.3929406,8.44827586 11.2817046,8.93311258 C10.169069,9.4179493 9.21738076,10.0667961 8.42524024,10.8810916 C7.63449925,11.6939484 7.01310279,12.653551 6.55965133,13.7584608 C6.1075994,14.8619319 5.88087367,16.0546015 5.88087367,17.3335921 C5.88087367,18.6125828 6.1075994,19.8038137 6.55965133,20.9072848 C7.01310279,22.0121946 7.63449925,22.9717972 8.42524024,23.784654 C9.21738076,24.5989495 10.169069,25.2477963 11.2817046,25.732633 C12.3929406,26.2174697 13.6287358,26.4591688 14.9862911,26.4591688 C16.3438464,26.4591688 17.5684453,26.2275405 18.6614873,25.7614067 L18.6614873,25.7614067 Z M44.5614035,53.2 L5.4848034,53.2 L5.4848034,35.8767984 L11.3656771,35.8767984 L11.3656771,47.8509705 L44.5614035,47.8509705 L44.5614035,53.2 Z M28.8403531,22.9128111 C28.0846006,24.6579356 27.0489399,26.1786253 25.7305717,27.4763188 C24.4094045,28.775451 22.826523,29.8026718 20.9791281,30.5579813 C19.1331328,31.3132907 17.1345874,31.6916648 14.9862911,31.6916648 C12.8365953,31.6916648 10.8380499,31.3132907 8.99205457,30.5579813 C7.1446597,29.8026718 5.56037865,28.775451 4.24061095,27.4763188 C2.92084325,26.1786253 1.88518249,24.6579356 1.13222913,22.9128111 C0.37507714,21.1705641 0,19.3103448 0,17.3335921 C0,15.3568395 0.37507714,13.4966202 1.13222913,11.7529345 C1.88518249,10.00781 2.92084325,8.48855903 4.24061095,7.18942681 C5.56037865,5.89029459 7.1446597,4.86451245 8.99205457,4.10776433 C10.8380499,3.3524549 12.8365953,2.97551953 14.9862911,2.97551953 C17.1345874,2.97551953 19.1331328,3.3524549 20.9791281,4.10776433 C22.826523,4.86451245 24.4094045,5.89029459 25.7305717,7.18942681 C27.0489399,8.48855903 28.0846006,10.00781 28.8403531,11.7529345 C29.594706,13.4966202 29.9711827,15.3568395 29.9711827,17.3335921 C29.9711827,19.3103448 29.594706,21.1705641 28.8403531,22.9128111 L28.8403531,22.9128111 Z" id="Fill-1"></path>
                <path d="M93.5455307,40.5358327 L87.8663879,40.5358327 L87.8663879,20.4801105 L78.9651898,20.4801105 L78.9651898,14.9060773 L87.8663879,14.9060773 L87.8663879,0.665824783 L93.5455307,0.665824783 L93.5455307,40.5358327 Z M94.6929825,53.2 L56.956822,53.2 L56.956822,36.9607735 L62.6359648,36.9607735 L62.6359648,47.6259669 L94.6929825,47.6259669 L94.6929825,53.2 Z M79.7828674,33.1442778 C78.7638113,32.3764799 77.7082638,31.5292028 76.6175765,30.5994475 C75.5241861,29.6696922 74.4132257,28.7114444 73.286047,27.7217048 C72.1561651,26.7319653 71.0546655,25.7317285 69.9801966,24.7209945 C68.9084307,23.7117601 67.8799139,22.7220205 66.8959977,21.7532755 C65.9485728,22.7220205 64.9105953,23.7417522 63.7834165,24.8124704 C62.6548862,25.8831886 61.4979738,26.9629045 60.3153822,28.0546172 C59.131439,29.1448303 57.9583081,30.2050513 56.7932864,31.2352802 C55.6269132,32.2655091 54.5362259,33.1847672 53.5171698,33.9915549 L50.1315789,29.5692186 C52.3156567,27.7516969 54.4997345,25.8127072 56.6851638,23.7522494 C58.8692416,21.6917916 60.8532924,19.6928177 62.6359648,17.7538279 C63.1454928,17.1884767 63.5009461,16.602131 63.700973,15.9962904 C63.9009999,15.3904499 64.0023649,14.6631413 64.0023649,13.8143646 L64.0023649,11.3295185 L52.5332536,11.3295185 L52.5332536,5.7554854 L64.0023649,5.7554854 L64.0023649,0 L69.7909819,0 L69.7909819,5.7554854 L81.2587417,5.7554854 L81.2587417,11.3295185 L69.7909819,11.3295185 L69.7909819,13.8143646 C69.7909819,14.6631413 69.8896438,15.3904499 70.0910223,15.9962904 C70.2910492,16.602131 70.6451509,17.1884767 71.1560305,17.7538279 C73.0130372,19.6928177 74.9241053,21.5508287 76.8892347,23.3278611 C78.8557156,25.1063931 80.9492406,26.8624309 83.1698098,28.598974 L79.7828674,33.1442778 Z" id="Fill-3"></path>
                <path d="M147.609649,53.2 L141.93756,53.2 L141.93756,25.137998 L135.119444,25.137998 L135.119444,51.6784936 L129.501348,51.6784936 L129.501348,0.608602577 L135.119444,0.608602577 L135.119444,19.4180377 L141.93756,19.4180377 L141.93756,0 L147.609649,0 L147.609649,53.2 Z M103.048246,42.9125074 C105.557626,39.7474727 108.02111,36.5929832 110.4387,33.4475322 C112.85629,30.3035877 115.137544,27.1475917 117.283813,23.982557 C118.483834,22.2380971 119.08317,19.9648761 119.08317,17.1644004 L119.08317,8.27789891 L104.68427,8.27789891 L104.68427,2.67845391 L124.647271,2.67845391 L124.647271,16.9821209 C124.647271,18.9299504 124.456941,20.6955005 124.073582,22.2787711 C123.692923,23.8605352 123.082789,25.2404361 122.247229,26.4169673 C119.956526,29.7868781 117.50249,33.1341923 114.883772,36.4604163 C112.265054,39.7881467 109.612589,43.1369673 106.920979,46.5038652 L103.048246,42.9125074 Z" id="Fill-4"></path>
                <path d="M196.599748,32.7886496 L190.634779,32.7886496 L190.634779,1.24892309 L196.599748,1.24892309 L196.599748,14.7573224 L203.311404,14.7573224 L203.311404,20.3509662 L196.599748,20.3509662 L196.599748,32.7886496 Z M185.24331,48.0820663 C187.229267,48.0820663 188.84614,47.7050329 190.08967,46.952439 C191.33178,46.1968994 191.953545,45.1276563 191.953545,43.7388184 C191.953545,42.3499806 191.33178,41.2792647 190.08967,40.5251979 C188.84614,39.772604 187.229267,39.3940978 185.24331,39.3940978 L170.44445,39.3940978 C168.455654,39.3940978 166.838781,39.772604 165.596671,40.5251979 C164.35456,41.2792647 163.734215,42.3499806 163.734215,43.7388184 C163.734215,45.1276563 164.35456,46.1968994 165.596671,46.952439 C166.838781,47.7050329 168.455654,48.0820663 170.44445,48.0820663 L185.24331,48.0820663 Z M172.738451,25.9460827 C173.463844,25.9460827 174.14381,25.8856985 174.775512,25.7664027 C175.405795,25.647107 175.959421,25.4394441 176.437811,25.1419412 C176.916201,24.8444383 177.289544,24.4379492 177.55642,23.9210011 C177.823296,23.4069985 177.958154,22.7530812 177.958154,21.9577764 C177.958154,21.1654172 177.823296,20.5100271 177.55642,19.9945518 C177.289544,19.4790765 176.916201,19.0725873 176.437811,18.7736116 C175.959421,18.4775815 175.405795,18.2684458 174.775512,18.1506229 C174.14381,18.0298544 173.463844,17.9709429 172.738451,17.9709429 L165.741465,17.9709429 C164.286422,17.9709429 163.054248,18.2389901 162.040686,18.7736116 C161.027124,19.309706 160.521762,20.3715852 160.521762,21.9577764 C160.521762,22.7530812 160.6552,23.4069985 160.922077,23.9210011 C161.190372,24.4379492 161.562296,24.8444383 162.040686,25.1419412 C162.519076,25.4394441 163.074122,25.647107 163.704404,25.7664027 C164.336106,25.8856985 165.014653,25.9460827 165.741465,25.9460827 L172.738451,25.9460827 Z M170.099499,53.2 C168.302342,53.2 166.648561,52.9820276 165.138154,52.5460827 C163.627748,52.1086651 162.327436,51.4842035 161.238637,50.6712253 C160.148419,49.8582471 159.298106,48.8655888 158.686278,47.6961962 C158.07303,46.5253308 157.769245,45.2071868 157.769245,43.7388184 C157.769245,42.2704501 158.07303,40.9508333 158.686278,39.7814407 C159.298106,38.6120481 160.148419,37.6193898 161.238637,36.8064116 C162.327436,35.9934334 163.627748,35.367499 165.138154,34.9300814 C166.648561,34.4956093 168.302342,34.2761641 170.099499,34.2761641 L185.586842,34.2761641 C187.383998,34.2761641 189.03778,34.4956093 190.548186,34.9300814 C192.058592,35.367499 193.358905,35.9934334 194.447703,36.8064116 C195.537921,37.6193898 196.389654,38.6120481 197.000063,39.7814407 C197.611891,40.9508333 197.919934,42.2704501 197.919934,43.7388184 C197.919934,45.2071868 197.611891,46.5253308 197.000063,47.6961962 C196.389654,48.8655888 195.537921,49.8582471 194.447703,50.6712253 C193.358905,51.4842035 192.058592,52.1086651 190.548186,52.5460827 C189.03778,52.9820276 187.383998,53.2 185.586842,53.2 L170.099499,53.2 Z M165.224747,31.1818393 C161.973967,31.1818393 159.383279,30.4189358 157.452685,28.8916561 C155.52209,27.3643763 154.556793,25.0521012 154.556793,21.9577764 C154.556793,18.8634516 155.52209,16.5541221 157.452685,15.0253696 C159.383279,13.4980898 161.973967,12.7337135 165.224747,12.7337135 L173.255169,12.7337135 C176.50453,12.7337135 179.095218,13.4980898 181.025812,15.0253696 C182.957826,16.5541221 183.923124,18.8634516 183.923124,21.9577764 C183.923124,25.0521012 182.957826,27.3643763 181.025812,28.8916561 C179.095218,30.4189358 176.50453,31.1818393 173.255169,31.1818393 L165.224747,31.1818393 Z M185.185108,10.0561874 L153.179825,10.0561874 L153.179825,4.58183932 L166.256764,4.58183932 L166.256764,0 L172.221733,0 L172.221733,4.58183932 L185.185108,4.58183932 L185.185108,10.0561874 Z" id="Fill-5"></path>
                <path d="M249.67398,29.6773806 L243.849047,29.6773806 L243.849047,0 L249.67398,0 L249.67398,10.7862906 L256.22807,10.7862906 L256.22807,16.5142452 L249.67398,16.5142452 L249.67398,29.6773806 Z M238.58415,47.5926974 C240.52487,47.5926974 242.102399,47.1462849 243.316735,46.2519518 C244.529685,45.3576187 245.136853,44.0379872 245.136853,42.2915493 C245.136853,40.5451113 244.529685,39.2254798 243.316735,38.3311467 C242.102399,37.4383218 240.52487,36.9904011 238.58415,36.9904011 L224.132714,36.9904011 C222.190608,36.9904011 220.611693,37.4383218 219.398743,38.3311467 C218.185793,39.2254798 217.580011,40.5451113 217.580011,42.2915493 C217.580011,44.0379872 218.185793,45.3576187 219.398743,46.2519518 C220.611693,47.1462849 222.190608,47.5926974 224.132714,47.5926974 L238.58415,47.5926974 Z M223.795861,53.2 C222.040895,53.2 220.425939,52.9451226 218.950991,52.436876 C217.476044,51.9286293 216.206258,51.1986846 215.14302,50.2440255 C214.078397,49.2893664 213.248046,48.1416641 212.650581,46.8009185 C212.05173,45.4601729 211.753691,43.9580553 211.753691,42.2915493 C211.753691,40.6265514 212.05173,39.1229256 212.650581,37.78218 C213.248046,36.4414344 214.078397,35.2937321 215.14302,34.339073 C216.206258,33.3844139 217.476044,32.6544692 218.950991,32.1447144 C220.425939,31.6379759 222.040895,31.3830985 223.795861,31.3830985 L238.919617,31.3830985 C240.674583,31.3830985 242.289539,31.6379759 243.764487,32.1447144 C245.239434,32.6544692 246.50922,33.3844139 247.572457,34.339073 C248.637081,35.2937321 249.468818,36.4414344 250.064897,37.78218 C250.662361,39.1229256 250.963173,40.6265514 250.963173,42.2915493 C250.963173,43.9580553 250.662361,45.4601729 250.064897,46.8009185 C249.468818,48.1416641 248.637081,49.2893664 247.572457,50.2440255 C246.50922,51.1986846 245.239434,51.9286293 243.764487,52.436876 C242.289539,52.9451226 240.674583,53.2 238.919617,53.2 L223.795861,53.2 Z M235.896252,28.5191212 C233.692148,26.9355634 231.535176,25.2388944 229.426722,23.4306223 C227.315496,21.6238583 225.252787,19.7854231 223.237211,17.9168249 C222.265464,18.770438 221.220248,19.6934259 220.100175,20.6888051 C218.978716,21.6856924 217.830918,22.6901205 216.655396,23.7051056 C215.478488,24.7215989 214.293262,25.716978 213.098333,26.6912431 C211.903404,27.6670163 210.763924,28.5598412 209.681279,29.3727342 L206.096491,24.803039 C208.450308,23.0158809 210.679364,21.2573777 212.79059,19.5305457 C214.899044,17.8052218 216.906304,15.9863926 218.810982,14.0770744 C219.445875,13.4677817 219.838177,12.858489 219.98789,12.2491963 C220.136217,11.6399036 220.211073,10.9295648 220.211073,10.1166719 L220.211073,7.0083742 L208.72894,7.0083742 L208.72894,1.40257973 L237.350406,1.40257973 L237.350406,7.0083742 L226.148291,7.0083742 L226.148291,10.299158 C226.148291,11.112051 226.223147,11.8027838 226.37286,12.3713565 C226.522573,12.9399291 226.913489,13.5492218 227.549768,14.1992346 C229.453061,16.1085528 231.310607,17.8052218 233.122408,19.2877335 C234.932823,20.7702452 236.995532,22.36436 239.31192,24.0715861 L235.896252,28.5191212 Z" id="Fill-6"></path>
            </g>
            <g id="Group-15" transform="translate(270.000000, 0.000000)">
                <path d="M3.48608241,31.7411227 L63.3560229,31.7411227 L63.3560229,2.8 L3.48608241,2.8 L3.48608241,31.7411227 Z M18.3396135,20.6698895 L48.5024918,20.6698895 L48.5024918,13.8723967 L18.3396135,13.8723967 L18.3396135,20.6698895 Z M0,35.1782664 L0,46.2518267 L27.2067582,46.2518267 L27.2067582,54.9563874 L44.1813541,54.9563874 L44.1813541,46.2518267 L66.8421053,46.2518267 L66.8421053,35.1782664 L0,35.1782664 Z M3.48608241,49.9926585 L3.48608241,70 L63.6586848,70 L63.6586848,58.9276033 L18.3396135,58.9276033 L18.3396135,49.9926585 L3.48608241,49.9926585 Z" id="Fill-1" fill="#FFFFFF"></path>
                <path d="M94.7265938,35.7110775 C97.4475144,35.7110775 98.8091872,34.6736015 98.8091872,32.5997782 C98.8091872,30.5248261 97.4475144,29.4873501 94.7265938,29.4873501 L89.1319738,29.4873501 C86.4110532,29.4873501 85.0493804,30.5248261 85.0493804,32.5997782 C85.0493804,34.6736015 86.4110532,35.7110775 89.1319738,35.7110775 L94.7265938,35.7110775 Z M113.853065,16.1514363 L70.0055028,16.1514363 L70.0055028,5.18512247 L83.2354334,5.18512247 L83.2354334,0 L100.623134,0 L100.623134,5.18512247 L113.853065,5.18512247 L113.853065,16.1514363 Z M131.922208,67.2 L117.103862,67.2 L117.103862,57.4190505 L111.130932,63.2724927 L69.627193,63.2724927 L69.627193,51.7146255 L84.2187964,51.7146255 L84.2187964,46.9720391 C79.7833563,46.4301583 76.3676553,44.9851426 73.9753307,42.6381212 C71.5793686,40.2933575 70.3838126,36.9461143 70.3838126,32.5997782 C70.3838126,27.5614152 71.9964794,23.8563048 75.2218131,21.4855761 C78.4459342,19.1148473 82.9577637,17.9294829 88.7536639,17.9294829 L95.1036911,17.9294829 C100.899591,17.9294829 105.410208,19.1148473 108.636755,21.4855761 C111.862088,23.8563048 113.474755,27.5614152 113.474755,32.5997782 C113.474755,36.9461143 112.290112,40.2933575 109.922038,42.6381212 C107.552751,44.9851426 104.177064,46.4301583 99.7925502,46.9720391 L99.7925502,51.7146255 L117.103862,51.7146255 L117.103862,1.77691765 L131.922208,1.77691765 L131.922208,25.70886 L139.254386,25.70886 L139.254386,38.971394 L131.922208,38.971394 L131.922208,67.2 Z" id="Fill-2" fill="#FFFFFF"></path>
                <path d="M206.096491,70 L192.215335,70 L192.215335,39.8631465 L188.821572,39.8631465 L188.821572,69.3912098 L175.091653,69.3912098 L175.091653,59.0406171 L166.040408,64.8247036 C164.380428,61.7807527 162.783363,58.7750686 161.250423,55.8064917 C159.715063,52.8390744 158.270445,49.8589015 156.91294,46.8648134 C155.453803,50.2137392 153.982567,53.4478646 152.499233,56.5671895 C151.015898,59.6876741 149.393426,62.8464254 147.634234,66.042284 L136.469298,59.345592 C138.58178,55.2359683 140.604729,50.9489258 142.541775,46.4844645 C144.476401,42.0200031 146.200505,37.6552674 147.709248,33.3937361 C148.110934,32.2271781 148.412198,31.0861314 148.614251,29.9694362 C148.815094,28.8539007 148.915516,27.5597867 148.915516,26.0882539 L148.915516,16.9552415 L140.240549,16.9552415 L140.240549,3.94220635 L172.376642,3.94220635 L172.376642,16.9552415 L163.926717,16.9552415 L163.926717,26.0882539 C163.926717,27.5597867 164.040447,28.7646115 164.267908,29.7027282 C164.492949,30.6420045 164.807522,31.6694104 165.210418,32.7849459 C166.517108,36.4388466 168.02585,40.1808769 169.735436,44.0098773 C171.445021,47.8423565 173.23083,51.5333644 175.091653,55.0840607 L175.091653,3.02844127 L188.821572,3.02844127 L188.821572,26.2401615 L192.215335,26.2401615 L192.215335,2.8 L206.096491,2.8 L206.096491,70 Z" id="Fill-4" fill="#FFFFFF"></path>
                <path d="M288.894113,70 L274.012743,70 L274.012743,2.8 L288.894113,2.8 L288.894113,15.9661024 L298.004386,15.9661024 L298.004386,29.5890873 L288.894113,29.5890873 L288.894113,38.7974737 L298.004386,38.7974737 L298.004386,52.4204587 L288.894113,52.4204587 L288.894113,70 Z M248.88125,2.8 C251.663896,2.8 254.31015,3.20701972 256.81514,4.01758037 C259.321348,4.82930062 261.496317,6.00977377 263.344919,7.55668064 C265.192304,9.10474711 266.659739,10.9948957 267.748441,13.2271264 C268.835926,15.459357 269.381495,17.995403 269.381495,20.8375835 L269.381495,49.4518818 C269.381495,52.2940622 268.835926,54.8301082 267.748441,57.0623389 C266.659739,59.2957292 265.192304,61.1835585 263.344919,62.731625 C261.496317,64.2785319 259.321348,65.459005 256.81514,66.2707253 C254.31015,67.0824455 251.663896,67.4883056 248.88125,67.4883056 C246.045022,67.4883056 243.387808,67.0824455 240.908392,66.2707253 C238.427757,65.459005 236.263748,64.2785319 234.417581,62.731625 C232.567761,61.1835585 231.100327,59.2957292 230.012842,57.0623389 C228.924139,54.8301082 228.381006,52.2940622 228.381006,49.4518818 L228.379845,39.2448881 C230.658052,48.934067 239.744588,56.1745488 250.607221,56.1745488 C258.284157,56.1745488 265.069673,52.5531169 269.195539,47.0102273 C267.456537,47.4160874 265.640815,47.6352519 263.771511,47.6352519 C251.19176,47.6352519 240.994002,37.9247585 240.994002,25.9460869 C240.994002,21.2786954 242.5479,16.9591841 245.181975,13.4212435 C236.818234,15.3679609 230.264164,21.7089684 228.379007,29.7305732 L228.381006,20.8375835 C228.381006,17.995403 228.924139,15.459357 230.012842,13.2271264 C231.100327,10.9948957 232.567761,9.10474711 234.417581,7.55668064 C236.263748,6.00977377 238.427757,4.82930062 240.908392,4.01758037 C243.387808,3.20701972 246.045022,2.8 248.88125,2.8 Z M258.350892,16.6121158 L256.597277,19.99467 L252.676,20.5373629 L255.513446,23.1708153 L254.843663,26.8896537 L258.350892,25.1340187 L261.858122,26.8896537 L261.188338,23.1708153 L264.025785,20.5373629 L260.104507,19.99467 L258.350892,16.6121158 Z" id="Fill-6" fill="#F3E900"></path>
                <g id="Group-10" transform="translate(298.004386, 0.000000)">
                    <mask id="mask-2" fill="white">
                        <use xlink:href="#path-1"></use>
                    </mask>
                    <g id="Clip-9"></g>
                    <path d="M65.4213412,42.6611942 L51.6633852,42.6611942 L51.6633852,29.3665855 L48.8225765,29.3665855 L48.8225765,42.2102967 L35.2145155,42.2102967 L35.2145155,2.70412592 L48.8225765,2.70412592 L48.8225765,16.748323 L51.6633852,16.748323 L51.6633852,2.47867719 L65.4213412,2.47867719 L65.4213412,42.6611942 Z M48.8225765,58.8088165 C49.819078,58.8088165 50.6285106,58.6703429 51.2532727,58.3956846 C51.8756364,58.1210262 52.1874179,57.6335077 52.1874179,56.9319845 C52.1874179,56.2304612 51.8756364,55.7292098 51.2532727,55.4293744 C50.6285106,55.129539 49.819078,54.9784769 48.8225765,54.9784769 L22.6545197,54.9784769 C21.6580182,54.9784769 20.8234033,55.129539 20.1506749,55.4293744 C19.4767473,55.7292098 19.1409826,56.2304612 19.1409826,56.9319845 C19.1409826,57.6335077 19.4767473,58.1210262 20.1506749,58.3956846 C20.8234033,58.6703429 21.6580182,58.8088165 22.6545197,58.8088165 L48.8225765,58.8088165 Z M17.1971452,31.6199284 C18.692497,31.6199284 19.4395733,30.8691956 19.4395733,29.3665855 C19.4395733,27.8651199 18.692497,27.1132426 17.1971452,27.1132426 L16.0003841,27.1132426 C14.4055021,27.1132426 13.6080611,27.8651199 13.6080611,29.3665855 C13.6080611,30.8691956 14.4055021,31.6199284 16.0003841,31.6199284 L17.1971452,31.6199284 Z M51.8132801,43.8628245 C56.8473513,43.8628245 60.6103136,45.0266893 63.1021669,47.3555632 C65.5952193,49.6832928 66.8423451,52.8750517 66.8423451,56.9319845 C66.8423451,60.9877728 65.5568462,64.1795317 62.9918442,66.5072613 C60.4232447,68.8361352 56.6231085,70 51.5890373,70 L19.2896784,70 C14.2556072,70 10.531018,68.8361352 8.11351262,66.5072613 C5.69480807,64.1795317 4.48605538,60.9877728 4.48605538,56.9319845 C4.48605538,52.8750517 5.73318118,49.6832928 8.22503445,47.3555632 C10.7168877,45.0266893 14.4786508,43.8628245 19.5151204,43.8628245 L51.8132801,43.8628245 Z M13.3838183,41.3085018 C9.3462485,41.3085018 6.20684915,40.2075796 3.96322188,38.0045907 C1.72079376,35.8016018 0.598380549,32.9234112 0.598380549,29.3665855 C0.598380549,25.8120487 1.72079376,22.933858 3.96322188,20.7297247 C6.20684915,18.5267359 9.3462485,17.4246692 13.3838183,17.4246692 L19.6650153,17.4246692 C23.7013859,17.4246692 26.8419844,18.5267359 29.0844125,20.7297247 C31.3268406,22.933858 32.4492538,25.8120487 32.4492538,29.3665855 C32.4492538,32.9234112 31.3268406,35.8016018 29.0844125,38.0045907 C26.8419844,40.2075796 23.7013859,41.3085018 19.6650153,41.3085018 L13.3838183,41.3085018 Z M33.1219823,15.6222238 L0,15.6222238 L0,6.00918144 L9.12320485,6.00918144 L9.12320485,-0.000114440979 L24.0011757,-0.000114440979 L24.0011757,6.00918144 L33.1219823,6.00918144 L33.1219823,15.6222238 Z" id="Fill-8" fill="#F3E900" mask="url(#mask-2)"></path>
                </g>
            </g>
        </g>
    </g>
</svg>